<svg width="32" height="40" viewBox="0 0 32 40" fill="none" xmlns="http://www.w3.org/2000/svg">
<path d="M0 34V31H4.2V15.7C4.2 12.9 5.025 10.4083 6.675 8.225C8.325 6.04167 10.5 4.66667 13.2 4.1V2.65C13.2 1.88333 13.475 1.25 14.025 0.75C14.575 0.25 15.2333 0 16 0C16.7667 0 17.425 0.25 17.975 0.75C18.525 1.25 18.8 1.88333 18.8 2.65V4.1C21.5 4.66667 23.6833 6.04167 25.35 8.225C27.0167 10.4083 27.85 12.9 27.85 15.7V31H32V34H0ZM16 40C14.9333 40 14 39.6083 13.2 38.825C12.4 38.0417 12 37.1 12 36H20C20 37.1 19.6083 38.0417 18.825 38.825C18.0417 39.6083 17.1 40 16 40ZM7.2 31H24.85V15.7C24.85 13.2333 24 11.1333 22.3 9.4C20.6 7.66667 18.5167 6.8 16.05 6.8C13.5833 6.8 11.4917 7.66667 9.775 9.4C8.05833 11.1333 7.2 13.2333 7.2 15.7V31Z" fill="black"/>
</svg>
