<svg viewBox="0 0 23 23" xmlns="http://www.w3.org/2000/svg">
<path d="M0 17.2716V1.20901C0 0.940342 0.124583 0.671673 0.37375 0.403004C0.622917 0.134334 0.881667 0 1.15 0H16.0713C16.3588 0 16.6271 0.129537 16.8762 0.388611C17.1254 0.647685 17.25 0.921151 17.25 1.20901V11.4568C17.25 11.7255 17.1254 11.9942 16.8762 12.2628C16.6271 12.5315 16.3588 12.6658 16.0713 12.6658H4.6L0 17.2716ZM5.77875 18.423C5.51042 18.423 5.24687 18.2887 4.98812 18.02C4.72937 17.7514 4.6 17.4827 4.6 17.214V14.393H18.975V4.60576H21.85C22.1183 4.60576 22.3771 4.74009 22.6262 5.00876C22.8754 5.27743 23 5.55569 23 5.84355V23L18.4287 18.423H5.77875ZM15.525 1.72716H1.725V13.0976L3.88125 10.9387H15.525V1.72716Z"/>
</svg>
