<svg width="59" height="59" viewBox="0 0 59 59" fill="none" xmlns="http://www.w3.org/2000/svg">
<circle cx="29.5" cy="29.5" r="29.5" fill="#0C6464"/>
<rect x="36" y="39.6328" width="13" height="1.73333" rx="0.866667" fill="white"/>
<rect x="41.6328" y="47" width="13" height="1.73333" rx="0.866667" transform="rotate(-90 41.6328 47)" fill="white"/>
<path d="M9 33.2753V14.4193C9 14.1039 9.14625 13.7885 9.43875 13.4731C9.73125 13.1577 10.035 13 10.35 13H27.8663C28.2038 13 28.5187 13.1521 28.8112 13.4562C29.1038 13.7603 29.25 14.0814 29.25 14.4193V26.4493C29.25 26.7647 29.1038 27.0801 28.8112 27.3955C28.5187 27.7109 28.2038 27.8686 27.8663 27.8686H14.4L9 33.2753ZM15.7838 34.627C15.4688 34.627 15.1594 34.4693 14.8556 34.1539C14.5519 33.8385 14.4 33.5232 14.4 33.2078V29.8961H31.275V18.4068H34.65C34.965 18.4068 35.2687 18.5645 35.5612 18.8798C35.8538 19.1952 36 19.5219 36 19.8598V40L30.6337 34.627H15.7838ZM27.225 15.0275H11.025V28.3755L13.5563 25.8411H27.225V15.0275ZM11.025 15.0275V28.3755V15.0275Z" fill="white"/>
</svg>
