<svg width="59" height="59" viewBox="0 0 59 59" fill="none" xmlns="http://www.w3.org/2000/svg">
<circle cx="29.5" cy="29.5" r="29.5" fill="#64739A"/>
<path d="M18.8922 45C18.1172 45 17.4391 44.7417 16.8578 44.225C16.2766 43.7083 15.9859 43.1056 15.9859 42.4167V17.875H14V15.2917H23.1062V14H35.8938V15.2917H45V17.875H43.0141V42.4167C43.0141 43.1056 42.7234 43.7083 42.1422 44.225C41.5609 44.7417 40.8828 45 40.1078 45H18.8922ZM40.1078 17.875H18.8922V42.4167H40.1078V17.875ZM24.0266 38.7139H26.9328V21.5347H24.0266V38.7139ZM32.0672 38.7139H34.9734V21.5347H32.0672V38.7139ZM18.8922 17.875V42.4167V17.875Z" fill="white"/>
</svg>
