<svg width="18" height="12" viewBox="0 0 18 12" fill="none" xmlns="http://www.w3.org/2000/svg">
<path d="M14.1136 7.36232V4.85024H11.4545V3.69082H14.1136V1.17874H15.3409V3.69082H18V4.85024H15.3409V7.36232H14.1136ZM6.54545 5.7971C5.64545 5.7971 4.90909 5.52657 4.33636 4.98551C3.76364 4.44444 3.47727 3.74879 3.47727 2.89855C3.47727 2.04831 3.76364 1.35266 4.33636 0.811594C4.90909 0.270532 5.64545 0 6.54545 0C7.44545 0 8.18182 0.270532 8.75455 0.811594C9.32727 1.35266 9.61364 2.04831 9.61364 2.89855C9.61364 3.74879 9.32727 4.44444 8.75455 4.98551C8.18182 5.52657 7.44545 5.7971 6.54545 5.7971ZM0 12V10.1836C0 9.73269 0.122727 9.32367 0.368182 8.95652C0.613636 8.58937 0.954545 8.31562 1.39091 8.13527C2.41364 7.71014 3.32386 7.41063 4.12159 7.23671C4.91932 7.0628 5.72727 6.97585 6.54545 6.97585C7.36364 6.97585 8.17159 7.0628 8.96932 7.23671C9.76705 7.41063 10.6705 7.71014 11.6795 8.13527C12.1159 8.3285 12.4602 8.60548 12.7125 8.96618C12.9648 9.32689 13.0909 9.73269 13.0909 10.1836V12H0ZM1.22727 10.8406H11.8636V10.1836C11.8636 9.97746 11.8091 9.781 11.7 9.5942C11.5909 9.40741 11.4205 9.26892 11.1886 9.17874C10.2341 8.74074 9.41932 8.45733 8.74432 8.3285C8.06932 8.19968 7.33636 8.13527 6.54545 8.13527C5.75455 8.13527 5.02159 8.2029 4.34659 8.33817C3.67159 8.47343 2.85 8.75362 1.88182 9.17874C1.67727 9.26892 1.51705 9.40741 1.40114 9.5942C1.28523 9.781 1.22727 9.97746 1.22727 10.1836V10.8406ZM6.54545 4.63768C7.07727 4.63768 7.51705 4.47343 7.86477 4.14493C8.2125 3.81643 8.38636 3.40097 8.38636 2.89855C8.38636 2.39614 8.2125 1.98068 7.86477 1.65217C7.51705 1.32367 7.07727 1.15942 6.54545 1.15942C6.01364 1.15942 5.57386 1.32367 5.22614 1.65217C4.87841 1.98068 4.70455 2.39614 4.70455 2.89855C4.70455 3.40097 4.87841 3.81643 5.22614 4.14493C5.57386 4.47343 6.01364 4.63768 6.54545 4.63768Z" fill="white"/>
</svg>
