<svg width="36" height="36" viewBox="0 0 36 36" xmlns="http://www.w3.org/2000/svg">
<path d="M27.3652 36H8.29117V12.96L20.2339 0L21.9093 1.395C22.0811 1.545 22.21 1.755 22.2959 2.025C22.3819 2.295 22.4248 2.625 22.4248 3.015V3.465L20.4916 12.96H33.3365C34.0239 12.96 34.6253 13.23 35.1408 13.77C35.6563 14.31 35.9141 14.94 35.9141 15.66V19.35C35.9141 19.56 35.9356 19.7775 35.9785 20.0025C36.0215 20.2275 36 20.445 35.9141 20.655L30.5012 33.705C30.2434 34.335 29.821 34.875 29.2339 35.325C28.6468 35.775 28.0239 36 27.3652 36ZM10.8687 33.3H27.9236L33.3365 19.845V15.66H17.3126L19.5895 4.455L10.8687 14.085V33.3ZM8.29117 12.96V15.66H2.57757V33.3H8.29117V36H0V12.96H8.29117Z" fill="#ADB0B0"/>
</svg>
