<svg width="43" height="40" viewBox="0 0 43 40" fill="none" xmlns="http://www.w3.org/2000/svg">
<path d="M32.7992 40H10.5992V14.4L24.4992 0L26.4492 1.55C26.6492 1.71667 26.7992 1.95 26.8992 2.25C26.9992 2.55 27.0492 2.91667 27.0492 3.35V3.85L24.7992 14.4H39.7492C40.5492 14.4 41.2492 14.7 41.8492 15.3C42.4492 15.9 42.7492 16.6 42.7492 17.4V21.5C42.7492 21.7333 42.7742 21.975 42.8242 22.225C42.8742 22.475 42.8492 22.7167 42.7492 22.95L36.4492 37.45C36.1492 38.15 35.6575 38.75 34.9742 39.25C34.2909 39.75 33.5659 40 32.7992 40ZM13.5992 37H33.4492L39.7492 22.05V17.4H21.0992L23.7492 4.95L13.5992 15.65V37ZM13.5992 15.65V37V15.65ZM10.5992 14.4V17.4H3.94922V37H10.5992V40H0.949219V14.4H10.5992Z" fill="#FF0000"/>
</svg>
