<svg width="59" height="59" viewBox="0 0 59 59" fill="none" xmlns="http://www.w3.org/2000/svg">
<circle cx="29.5" cy="29.5" r="29.5" fill="#194364"/>
<rect x="33" y="35.6318" width="13" height="1.73333" rx="0.866667" fill="white"/>
<rect x="38.6328" y="43" width="13" height="1.73333" rx="0.866667" transform="rotate(-90 38.6328 43)" fill="white"/>
<path d="M14.5375 38.4625H16.3984L35.1337 19.7271L33.2729 17.8663L14.5375 36.6016V38.4625ZM40.5048 17.9086L35.0914 12.4952L36.8677 10.719C37.347 10.2397 37.9391 10 38.6439 10C39.3488 10 39.9409 10.2397 40.4202 10.719L42.281 12.5798C42.7603 13.0591 43 13.6512 43 14.3561C43 15.0609 42.7603 15.653 42.281 16.1323L40.5048 17.9086ZM38.7285 19.6849L17.4134 41H12V35.5866L33.3151 14.2715L38.7285 19.6849ZM34.2033 18.7967L33.2729 17.8663L35.1337 19.7271L34.2033 18.7967Z" fill="white"/>
</svg>
