<svg width="59" height="59" viewBox="0 0 59 59" fill="none" xmlns="http://www.w3.org/2000/svg">
<circle cx="29.5" cy="29.5" r="29.5" fill="#64739A"/>
<path d="M16.5375 42.4625H18.3984L37.1337 23.7271L35.2729 21.8663L16.5375 40.6016V42.4625ZM42.5048 21.9086L37.0914 16.4952L38.8677 14.719C39.347 14.2397 39.9391 14 40.6439 14C41.3488 14 41.9409 14.2397 42.4202 14.719L44.281 16.5798C44.7603 17.0591 45 17.6512 45 18.3561C45 19.0609 44.7603 19.653 44.281 20.1323L42.5048 21.9086ZM40.7285 23.6849L19.4134 45H14V39.5866L35.3151 18.2715L40.7285 23.6849ZM36.2033 22.7967L35.2729 21.8663L37.1337 23.7271L36.2033 22.7967Z" fill="white"/>
</svg>
