<svg width="59" height="59" viewBox="0 0 59 59" fill="none" xmlns="http://www.w3.org/2000/svg">
<circle cx="29.5" cy="29.5" r="29.5" fill="#64739A"/>
<path d="M45 20.7597V42.4167C45 43.1056 44.7417 43.7083 44.225 44.225C43.7083 44.7417 43.1056 45 42.4167 45H16.5833C15.8944 45 15.2917 44.7417 14.775 44.225C14.2583 43.7083 14 43.1056 14 42.4167V16.5833C14 15.8944 14.2583 15.2917 14.775 14.775C15.2917 14.2583 15.8944 14 16.5833 14H38.2403L45 20.7597ZM42.4167 21.9222L37.0778 16.5833H16.5833V42.4167H42.4167V21.9222ZM29.5 39.6181C30.7343 39.6181 31.7891 39.1803 32.6646 38.3049C33.54 37.4294 33.9778 36.3745 33.9778 35.1403C33.9778 33.906 33.54 32.8512 32.6646 31.9757C31.7891 31.1002 30.7343 30.6625 29.5 30.6625C28.2657 30.6625 27.2109 31.1002 26.3354 31.9757C25.46 32.8512 25.0222 33.906 25.0222 35.1403C25.0222 36.3745 25.46 37.4294 26.3354 38.3049C27.2109 39.1803 28.2657 39.6181 29.5 39.6181ZM18.8653 25.0222H34.2792V18.8653H18.8653V25.0222ZM16.5833 21.9222V42.4167V16.5833V21.9222Z" fill="white"/>
</svg>
