<svg width="32" height="22" viewBox="0 0 32 22" fill="none" xmlns="http://www.w3.org/2000/svg">
<path d="M16 17.2333C17.7212 17.2333 19.1818 16.6283 20.3818 15.4183C21.5818 14.2083 22.1818 12.7356 22.1818 11C22.1818 9.26444 21.5818 7.79167 20.3818 6.58167C19.1818 5.37167 17.7212 4.76667 16 4.76667C14.2788 4.76667 12.8182 5.37167 11.6182 6.58167C10.4182 7.79167 9.81818 9.26444 9.81818 11C9.81818 12.7356 10.4182 14.2083 11.6182 15.4183C12.8182 16.6283 14.2788 17.2333 16 17.2333ZM16 15.1067C14.8606 15.1067 13.897 14.7094 13.1091 13.915C12.3212 13.1206 11.9273 12.1489 11.9273 11C11.9273 9.85111 12.3212 8.87944 13.1091 8.085C13.897 7.29056 14.8606 6.89333 16 6.89333C17.1394 6.89333 18.103 7.29056 18.8909 8.085C19.6788 8.87944 20.0727 9.85111 20.0727 11C20.0727 12.1489 19.6788 13.1206 18.8909 13.915C18.103 14.7094 17.1394 15.1067 16 15.1067ZM16 22C12.4606 22 9.26061 20.9856 6.4 18.9567C3.53939 16.9278 1.40606 14.2756 0 11C1.40606 7.72444 3.53939 5.07222 6.4 3.04333C9.26061 1.01444 12.4606 0 16 0C19.5394 0 22.7394 1.01444 25.6 3.04333C28.4606 5.07222 30.5939 7.72444 32 11C30.5939 14.2756 28.4606 16.9278 25.6 18.9567C22.7394 20.9856 19.5394 22 16 22ZM16 19.8C18.9333 19.8 21.6303 18.9994 24.0909 17.3983C26.5515 15.7972 28.4242 13.6644 29.7091 11C28.4242 8.33556 26.5515 6.20278 24.0909 4.60167C21.6303 3.00056 18.9333 2.2 16 2.2C13.0667 2.2 10.3697 3.00056 7.90909 4.60167C5.44848 6.20278 3.56364 8.33556 2.25455 11C3.56364 13.6644 5.44848 15.7972 7.90909 17.3983C10.3697 18.9994 13.0667 19.8 16 19.8Z" fill="#ADB0B0"/>
</svg>
