<svg width="23" height="23" viewBox="0 0 23 23" fill="none" xmlns="http://www.w3.org/2000/svg">
<path d="M13.7513 11.5128L0.00127779 10.1275L0 1.37147C0.000167269 1.13765 0.0600707 0.907743 0.174027 0.703568C0.287984 0.499394 0.452215 0.32772 0.651141 0.204832C0.850067 0.0819432 1.07709 0.0119152 1.31068 0.00139108C1.54426 -0.00913308 1.77666 0.0401956 1.98584 0.144697L22.2429 10.2732C22.4705 10.3874 22.6618 10.5626 22.7955 10.7792C22.9292 10.9959 23 11.2454 23 11.5C23 11.7546 22.9292 12.0041 22.7955 12.2208C22.6618 12.4374 22.4705 12.6126 22.2429 12.7268L1.98839 22.8553C1.77922 22.9598 1.54682 23.0091 1.31323 22.9986C1.07965 22.9881 0.852623 22.9181 0.653697 22.7952C0.454771 22.6723 0.29054 22.5006 0.176583 22.2964C0.0626263 22.0923 0.00272316 21.8624 0.00255589 21.6285V12.8724L13.7526 11.5128H13.7513Z" fill="#0C6464"/>
</svg>
