<svg width="20" height="22" viewBox="0 0 20 22" fill="none" xmlns="http://www.w3.org/2000/svg">
<path d="M3.15625 22C2.65625 22 2.21875 21.8167 1.84375 21.45C1.46875 21.0833 1.28125 20.6556 1.28125 20.1667V2.75H0V0.916667H5.875V0H14.125V0.916667H20V2.75H18.7188V20.1667C18.7188 20.6556 18.5312 21.0833 18.1562 21.45C17.7812 21.8167 17.3438 22 16.8438 22H3.15625ZM16.8438 2.75H3.15625V20.1667H16.8438V2.75ZM6.46875 17.5389H8.34375V5.34722H6.46875V17.5389ZM11.6562 17.5389H13.5312V5.34722H11.6562V17.5389ZM3.15625 2.75V20.1667V2.75Z" fill="#ADADAD"/>
</svg>
