<svg width="15" height="15" viewBox="0 0 15 15" fill="none" xmlns="http://www.w3.org/2000/svg">
<path d="M7.40625 7.40735C7.67708 7.07401 7.8776 6.73026 8.00781 6.3761C8.13802 6.02193 8.20312 5.61047 8.20312 5.14172C8.20312 4.67297 8.13802 4.26151 8.00781 3.90735C7.8776 3.55318 7.67708 3.20943 7.40625 2.8761C8.19792 2.69901 8.89323 2.8188 9.49219 3.23547C10.0911 3.65214 10.3906 4.28756 10.3906 5.14172C10.3906 5.99589 10.0911 6.6313 9.49219 7.04797C8.89323 7.46464 8.19792 7.58443 7.40625 7.40735ZM10.7812 12.5011V11.0323C10.7812 10.5011 10.6458 10.0063 10.375 9.54797C10.1042 9.08964 9.63542 8.70422 8.96875 8.39172C10.7708 8.62089 12.0026 8.95422 12.6641 9.39172C13.3255 9.82922 13.6562 10.3761 13.6562 11.0323V12.5011H10.7812ZM15 6.42297H10.9375V5.48547H15V6.42297ZM4.92188 7.48547C4.23438 7.48547 3.67188 7.26672 3.23438 6.82922C2.79688 6.39172 2.57812 5.82922 2.57812 5.14172C2.57812 4.45422 2.79688 3.89172 3.23438 3.45422C3.67188 3.01672 4.23438 2.79797 4.92188 2.79797C5.60938 2.79797 6.17188 3.01672 6.60938 3.45422C7.04688 3.89172 7.26562 4.45422 7.26562 5.14172C7.26562 5.82922 7.04688 6.39172 6.60938 6.82922C6.17188 7.26672 5.60938 7.48547 4.92188 7.48547ZM0 12.5011V11.0323C0 10.6678 0.0963542 10.337 0.289062 10.0402C0.481771 9.74328 0.739583 9.52193 1.0625 9.3761C1.8125 9.04276 2.48177 8.80318 3.07031 8.65735C3.65885 8.51151 4.27604 8.4386 4.92188 8.4386C5.56771 8.4386 6.18229 8.51151 6.76562 8.65735C7.34896 8.80318 8.01562 9.04276 8.76562 9.3761C9.08854 9.52193 9.34896 9.74328 9.54688 10.0402C9.74479 10.337 9.84375 10.6678 9.84375 11.0323V12.5011H0ZM4.92188 6.54797C5.32812 6.54797 5.66406 6.41516 5.92969 6.14953C6.19531 5.88391 6.32812 5.54797 6.32812 5.14172C6.32812 4.73547 6.19531 4.39953 5.92969 4.13391C5.66406 3.86828 5.32812 3.73547 4.92188 3.73547C4.51562 3.73547 4.17969 3.86828 3.91406 4.13391C3.64844 4.39953 3.51562 4.73547 3.51562 5.14172C3.51562 5.54797 3.64844 5.88391 3.91406 6.14953C4.17969 6.41516 4.51562 6.54797 4.92188 6.54797ZM0.9375 11.5636H8.90625V11.0323C8.90625 10.8657 8.86458 10.7094 8.78125 10.5636C8.69792 10.4178 8.56771 10.3032 8.39062 10.2198C7.67188 9.88651 7.0625 9.66255 6.5625 9.54797C6.0625 9.43339 5.51562 9.3761 4.92188 9.3761C4.32812 9.3761 3.78385 9.43339 3.28906 9.54797C2.79427 9.66255 2.17708 9.88651 1.4375 10.2198C1.28125 10.2928 1.15885 10.4047 1.07031 10.5558C0.981771 10.7068 0.9375 10.8657 0.9375 11.0323V11.5636Z" fill="#858D93"/>
</svg>
